<svg width="30" height="30" viewBox="0 0 30 30" fill="none" xmlns="http://www.w3.org/2000/svg">
<path d="M15 7.5C14.0729 7.5 13.1666 7.77492 12.3958 8.28999C11.6249 8.80506 11.0241 9.53714 10.6693 10.3937C10.3145 11.2502 10.2217 12.1927 10.4026 13.102C10.5834 14.0113 11.0299 14.8465 11.6854 15.5021C12.341 16.1576 13.1762 16.6041 14.0855 16.7849C14.9948 16.9658 15.9373 16.873 16.7938 16.5182C17.6504 16.1634 18.3825 15.5626 18.8975 14.7917C19.4126 14.0209 19.6875 13.1146 19.6875 12.1875C19.6875 10.9443 19.1936 9.75201 18.3146 8.87294C17.4355 7.99386 16.2432 7.5 15 7.5ZM15 15C14.4437 15 13.9 14.835 13.4375 14.526C12.975 14.217 12.6145 13.7777 12.4016 13.2638C12.1887 12.7499 12.133 12.1844 12.2415 11.6388C12.3501 11.0932 12.6179 10.5921 13.0113 10.1988C13.4046 9.80543 13.9057 9.53756 14.4513 9.42904C14.9969 9.32052 15.5624 9.37622 16.0763 9.58909C16.5902 9.80196 17.0295 10.1624 17.3385 10.625C17.6476 11.0875 17.8125 11.6312 17.8125 12.1875C17.8117 12.9332 17.5151 13.648 16.9878 14.1753C16.4605 14.7026 15.7457 14.9992 15 15Z" fill="#757575"/>
<path d="M15 1.875C12.4041 1.875 9.86654 2.64477 7.70815 4.08696C5.54975 5.52915 3.86749 7.579 2.87409 9.97728C1.88069 12.3756 1.62077 15.0146 2.1272 17.5606C2.63363 20.1066 3.88367 22.4452 5.71923 24.2808C7.55479 26.1163 9.89345 27.3664 12.4394 27.8728C14.9854 28.3792 17.6244 28.1193 20.0227 27.1259C22.421 26.1325 24.4709 24.4503 25.913 22.2919C27.3552 20.1335 28.125 17.5959 28.125 15C28.1211 11.5202 26.737 8.18412 24.2765 5.72355C21.8159 3.26299 18.4798 1.87892 15 1.875ZM9.37501 24.728V23.4375C9.37583 22.6918 9.6724 21.9769 10.1997 21.4497C10.7269 20.9224 11.4418 20.6258 12.1875 20.625H17.8125C18.5582 20.6258 19.2731 20.9224 19.8003 21.4497C20.3276 21.9769 20.6242 22.6918 20.625 23.4375V24.728C18.918 25.7247 16.9767 26.25 15 26.25C13.0233 26.25 11.082 25.7247 9.37501 24.728ZM22.493 23.3679C22.4743 22.1382 21.9733 20.965 21.0978 20.1011C20.2223 19.2373 19.0424 18.7521 17.8125 18.75H12.1875C10.9576 18.7521 9.77775 19.2373 8.90225 20.1011C8.02674 20.965 7.52567 22.1382 7.50704 23.3679C5.80694 21.8499 4.60803 19.8513 4.06907 17.6367C3.5301 15.4221 3.6765 13.0961 4.48889 10.9666C5.30127 8.83704 6.7413 7.0045 8.61832 5.71159C10.4953 4.41869 12.7208 3.7264 15 3.7264C17.2792 3.7264 19.5047 4.41869 21.3817 5.71159C23.2587 7.0045 24.6987 8.83704 25.5111 10.9666C26.3235 13.0961 26.4699 15.4221 25.9309 17.6367C25.392 19.8513 24.1931 21.8499 22.493 23.3679Z" fill="#757575"/>
</svg>
