<svg width="44" height="44" viewBox="0 0 44 44" fill="none" xmlns="http://www.w3.org/2000/svg">
<path d="M32.4274 24.0727L30.3125 21.9577V19.1562C30.31 17.2203 29.5897 15.354 28.291 13.9183C26.9922 12.4826 25.2073 11.5794 23.2812 11.3834V9.78125H21.7188V11.3834C19.7927 11.5794 18.0078 12.4826 16.709 13.9183C15.4103 15.354 14.69 17.2203 14.6875 19.1562V21.9577L12.5726 24.0727C12.4261 24.2191 12.3438 24.4178 12.3438 24.625V26.9688C12.3438 27.176 12.4261 27.3747 12.5726 27.5212C12.7191 27.6677 12.9178 27.75 13.125 27.75H18.5938V28.3569C18.5768 29.348 18.9262 30.3104 19.5749 31.0599C20.2236 31.8093 21.1261 32.2931 22.1094 32.4184C22.6525 32.4723 23.2008 32.4119 23.7192 32.2411C24.2375 32.0704 24.7144 31.793 25.1191 31.4269C25.5238 31.0608 25.8474 30.614 26.0691 30.1153C26.2908 29.6166 26.4056 29.077 26.4062 28.5312V27.75H31.875C32.0822 27.75 32.2809 27.6677 32.4274 27.5212C32.5739 27.3747 32.6562 27.176 32.6562 26.9688V24.625C32.6562 24.4178 32.5739 24.2191 32.4274 24.0727ZM24.8438 28.5312C24.8438 29.1529 24.5968 29.749 24.1573 30.1885C23.7177 30.6281 23.1216 30.875 22.5 30.875C21.8784 30.875 21.2823 30.6281 20.8427 30.1885C20.4032 29.749 20.1562 29.1529 20.1562 28.5312V27.75H24.8438V28.5312ZM31.0938 26.1875H13.9062V24.9485L16.0211 22.8336C16.1676 22.6871 16.25 22.4884 16.25 22.2812V19.1562C16.25 17.4986 16.9085 15.9089 18.0806 14.7368C19.2527 13.5647 20.8424 12.9062 22.5 12.9062C24.1576 12.9062 25.7473 13.5647 26.9194 14.7368C28.0915 15.9089 28.75 17.4986 28.75 19.1562V22.2812C28.75 22.4884 28.8324 22.6871 28.9789 22.8336L31.0938 24.9485V26.1875Z" fill="white"/>
</svg>
