<svg width="26" height="26" viewBox="0 0 26 26" fill="none" xmlns="http://www.w3.org/2000/svg">
<path d="M3.24998 10.549C3.24732 10.7136 3.29476 10.8752 3.38602 11.0123C3.47727 11.1494 3.60803 11.2555 3.76097 11.3166L11.5622 14.4373L14.6828 22.2389C14.743 22.3897 14.8472 22.5191 14.9817 22.6102C15.1163 22.7012 15.275 22.7499 15.4375 22.7499H15.4506C15.6152 22.7471 15.775 22.6945 15.909 22.5991C16.043 22.5036 16.1449 22.3697 16.2012 22.2151L22.7012 4.3395C22.7542 4.19414 22.7645 4.03669 22.731 3.88566C22.6975 3.73464 22.6216 3.59631 22.5122 3.48693C22.4028 3.37756 22.2645 3.30169 22.1134 3.26824C21.9624 3.2348 21.805 3.24516 21.6596 3.29812L3.78461 9.79812C3.63 9.8545 3.49613 9.95645 3.40068 10.0905C3.30523 10.2246 3.25268 10.3844 3.24998 10.549V10.549Z" stroke="#757575" stroke-width="2" stroke-linejoin="round"/>
</svg>
