<svg width="18" height="18" viewBox="0 0 18 18" fill="none" xmlns="http://www.w3.org/2000/svg">
<path d="M8.09748 1.89137C8.45972 1.13224 9.54028 1.13224 9.90251 1.89137L11.3584 4.9424C11.5042 5.24791 11.7946 5.45893 12.1302 5.50317L15.4818 5.94497C16.3157 6.05489 16.6496 7.08257 16.0396 7.66165L13.5878 9.9891C13.3423 10.2222 13.2313 10.5636 13.293 10.8964L13.9085 14.2205C14.0616 15.0476 13.1875 15.6827 12.4482 15.2815L9.47702 13.6689C9.1795 13.5074 8.8205 13.5074 8.52298 13.6689L5.5518 15.2815C4.81255 15.6827 3.93835 15.0476 4.0915 14.2205L4.70702 10.8964C4.76865 10.5636 4.65772 10.2222 4.41221 9.9891L1.9604 7.66165C1.35036 7.08257 1.68428 6.05489 2.51818 5.94497L5.86978 5.50317C6.20538 5.45893 6.49582 5.24791 6.6416 4.9424L8.09748 1.89137Z" fill="#FFB951"/>
</svg>
