<svg width="27" height="26" viewBox="0 0 27 26" fill="none" xmlns="http://www.w3.org/2000/svg">
<path d="M11.5845 1.90882C12.3331 0.339972 14.5663 0.339972 15.3149 1.90882L17.5749 6.64498C17.8762 7.27637 18.4764 7.71247 19.17 7.8039L24.3727 8.48971C26.0961 8.71689 26.7862 10.8407 25.5255 12.0375L21.7195 15.6505C21.2121 16.1321 20.9828 16.8377 21.1102 17.5256L22.0657 22.6856C22.3822 24.3949 20.5755 25.7075 19.0477 24.8783L14.4355 22.3751C13.8207 22.0413 13.0787 22.0413 12.4639 22.3751L7.85167 24.8783C6.32388 25.7075 4.51721 24.3949 4.83372 22.6856L5.7892 17.5256C5.91657 16.8377 5.6873 16.1321 5.17992 15.6505L1.37394 12.0375C0.113207 10.8407 0.80329 8.71689 2.52669 8.48971L7.72942 7.8039C8.423 7.71247 9.02325 7.27637 9.32453 6.64498L11.5845 1.90882Z" fill="#FFB951"/>
</svg>
