<svg width="26" height="26" viewBox="0 0 26 26" fill="none" xmlns="http://www.w3.org/2000/svg">
<path d="M11.0679 1.90882C11.8165 0.339972 14.0497 0.339972 14.7983 1.90882L17.0583 6.64498C17.3596 7.27637 17.9598 7.71247 18.6534 7.8039L23.8561 8.48971C25.5795 8.71689 26.2696 10.8407 25.0089 12.0375L21.2029 15.6505C20.6955 16.1321 20.4662 16.8377 20.5936 17.5256L21.5491 22.6856C21.8656 24.3949 20.0589 25.7075 18.5311 24.8783L13.9189 22.3751C13.3041 22.0413 12.5621 22.0413 11.9473 22.3751L7.33507 24.8783C5.80727 25.7075 4.00061 24.3949 4.31711 22.6856L5.27259 17.5256C5.39997 16.8377 5.1707 16.1321 4.66332 15.6505L0.857336 12.0375C-0.403395 10.8407 0.286689 8.71689 2.01009 8.48971L7.21282 7.8039C7.9064 7.71247 8.50665 7.27637 8.80793 6.64498L11.0679 1.90882Z" fill="#E0E0E0"/>
</svg>
