<svg width="18" height="18" viewBox="0 0 18 18" fill="none" xmlns="http://www.w3.org/2000/svg">
<path d="M9.45126 2.1067L10.9071 5.15773C11.1258 5.61599 11.5615 5.93252 12.0649 5.99888L15.4165 6.44068C15.8334 6.49564 16.0004 7.00948 15.6954 7.29902L13.2436 9.62647C12.8753 9.97605 12.7089 10.4882 12.8013 10.9875L13.4169 14.3116C13.4934 14.7251 13.0563 15.0427 12.6867 14.842L9.71552 13.2294C9.26925 12.9872 8.73075 12.9872 8.28448 13.2294L5.31329 14.842C4.94367 15.0427 4.50657 14.7251 4.58314 14.3116L5.19866 10.9875C5.29111 10.4882 5.12471 9.97605 4.75645 9.62647L2.30463 7.29902C1.99962 7.00948 2.16657 6.49564 2.58352 6.44068L5.93512 5.99888C6.43853 5.93252 6.87419 5.61599 7.09286 5.15773L8.54874 2.1067C8.72986 1.72713 9.27014 1.72714 9.45126 2.1067Z" stroke="#FFB951"/>
</svg>
