<svg width="40" height="40" viewBox="0 0 40 40" fill="none" xmlns="http://www.w3.org/2000/svg">
<path d="M14.5 21.375C15.2594 21.375 15.875 20.7594 15.875 20C15.875 19.2406 15.2594 18.625 14.5 18.625C13.7406 18.625 13.125 19.2406 13.125 20C13.125 20.7594 13.7406 21.375 14.5 21.375Z" fill="#757575"/>
<path d="M20 21.375C20.7594 21.375 21.375 20.7594 21.375 20C21.375 19.2406 20.7594 18.625 20 18.625C19.2406 18.625 18.625 19.2406 18.625 20C18.625 20.7594 19.2406 21.375 20 21.375Z" fill="#757575"/>
<path d="M25.5 21.375C26.2594 21.375 26.875 20.7594 26.875 20C26.875 19.2406 26.2594 18.625 25.5 18.625C24.7406 18.625 24.125 19.2406 24.125 20C24.125 20.7594 24.7406 21.375 25.5 21.375Z" fill="#757575"/>
</svg>
