<svg width="18" height="18" viewBox="0 0 18 18" fill="none" xmlns="http://www.w3.org/2000/svg">
<path d="M11.4463 3.3883C11.9601 2.77128 12.3241 1.93085 12.3241 1.07979C12.3241 0.962766 12.3134 0.845745 12.292 0.75C11.457 0.781915 10.4506 1.30319 9.85111 2.00532C9.38005 2.53723 8.94112 3.3883 8.94112 4.23936C8.94112 4.36702 8.96253 4.49468 8.97324 4.53723C9.02676 4.54787 9.11241 4.55851 9.19806 4.55851C9.94746 4.55851 10.8896 4.05851 11.4463 3.3883ZM12.0351 4.73936C10.7825 4.73936 9.76546 5.49468 9.11241 5.49468C8.41653 5.49468 7.50654 4.78191 6.41455 4.78191C4.34833 4.78191 2.25 6.48404 2.25 9.68617C2.25 11.6862 3.02082 13.7926 3.98434 15.1543C4.80868 16.3032 5.52597 17.25 6.56443 17.25C7.59219 17.25 8.04183 16.5691 9.31582 16.5691C10.6112 16.5691 10.9003 17.2287 12.0351 17.2287C13.1592 17.2287 13.9086 16.2074 14.6152 15.1968C15.4074 14.0372 15.7393 12.9096 15.75 12.8564C15.6858 12.8351 13.5339 11.9628 13.5339 9.51596C13.5339 7.39894 15.2254 6.45213 15.3218 6.37766C14.2084 4.78192 12.5061 4.73936 12.0351 4.73936Z" fill="#757575"/>
</svg>
