<svg width="18" height="18" viewBox="0 0 18 18" fill="none" xmlns="http://www.w3.org/2000/svg">
<path d="M8.99411 1.5C4.43041 1.5 0.75 4.39573 0.75 7.91119C0.75 10.1931 2.28105 12.1911 4.57762 13.3321L3.80032 16.1873C3.78567 16.2301 3.78341 16.276 3.79381 16.32C3.80421 16.364 3.82686 16.4043 3.85921 16.4363C3.90638 16.4772 3.96708 16.4999 4.02998 16.5C4.08213 16.4959 4.13161 16.4756 4.1713 16.4421L7.51606 14.224C8.00979 14.291 8.50748 14.3258 9.00589 14.3282C13.5637 14.3282 17.25 11.4324 17.25 7.91119C17.25 4.38994 13.5519 1.5 8.99411 1.5Z" fill="#757575"/>
</svg>
