<svg width="24" height="24" viewBox="0 0 24 24" fill="none" xmlns="http://www.w3.org/2000/svg">
<path d="M15.2617 4.51773C15.9469 3.69504 16.4322 2.57447 16.4322 1.43972C16.4322 1.28369 16.4179 1.12766 16.3894 1C15.276 1.04255 13.9342 1.73759 13.1348 2.67376C12.5067 3.38298 11.9215 4.51773 11.9215 5.65248C11.9215 5.82269 11.95 5.99291 11.9643 6.04965C12.0357 6.06383 12.1499 6.07801 12.2641 6.07801C13.2633 6.07801 14.5194 5.41135 15.2617 4.51773ZM16.0468 6.31915C14.3767 6.31915 13.0206 7.32624 12.1499 7.32624C11.222 7.32624 10.0087 6.37589 8.55274 6.37589C5.79778 6.37589 3 8.64539 3 12.9149C3 15.5816 4.02776 18.3901 5.31245 20.2057C6.41158 21.7376 7.36796 23 8.75258 23C10.1229 23 10.7224 22.0922 12.4211 22.0922C14.1483 22.0922 14.5337 22.9716 16.0468 22.9716C17.5456 22.9716 18.5448 21.6099 19.4869 20.2624C20.5432 18.7163 20.9857 17.2128 21 17.1418C20.9144 17.1135 18.0452 15.9504 18.0452 12.6879C18.0452 9.86525 20.3006 8.60284 20.429 8.50355C18.9445 6.37589 16.6749 6.31915 16.0468 6.31915Z" fill="white"/>
</svg>
