<svg width="25" height="24" viewBox="0 0 25 24" fill="none" xmlns="http://www.w3.org/2000/svg">
<path d="M22.25 19.5H2.75C2.55109 19.5 2.36032 19.421 2.21967 19.2803C2.07902 19.1397 2 18.9489 2 18.75V6C2 5.80109 2.07902 5.61032 2.21967 5.46967C2.36032 5.32902 2.55109 5.25 2.75 5.25H7.595L8.8775 3.3375C8.94544 3.23433 9.03781 3.14954 9.14641 3.09066C9.25501 3.03178 9.37647 3.00064 9.5 3H15.5C15.6235 3.00064 15.745 3.03178 15.8536 3.09066C15.9622 3.14954 16.0546 3.23433 16.1225 3.3375L17.405 5.25H22.25C22.4489 5.25 22.6397 5.32902 22.7803 5.46967C22.921 5.61032 23 5.80109 23 6V18.75C23 18.9489 22.921 19.1397 22.7803 19.2803C22.6397 19.421 22.4489 19.5 22.25 19.5ZM3.5 18H21.5V6.75H17C16.8765 6.74936 16.755 6.71822 16.6464 6.65934C16.5378 6.60046 16.4454 6.51567 16.3775 6.4125L15.095 4.5H9.905L8.6225 6.4125C8.55456 6.51567 8.46219 6.60046 8.35359 6.65934C8.24499 6.71822 8.12353 6.74936 8 6.75H3.5V18Z" fill="#EB4824"/>
<path d="M12.5 16.5C11.61 16.5 10.74 16.2361 9.99993 15.7416C9.25991 15.2471 8.68314 14.5443 8.34254 13.7221C8.00195 12.8998 7.91283 11.995 8.08647 11.1221C8.2601 10.2492 8.68868 9.44736 9.31802 8.81802C9.94736 8.18868 10.7492 7.7601 11.6221 7.58647C12.495 7.41283 13.3998 7.50195 14.2221 7.84254C15.0443 8.18314 15.7471 8.75991 16.2416 9.49993C16.7361 10.24 17 11.11 17 12C17 13.1935 16.5259 14.3381 15.682 15.182C14.8381 16.0259 13.6935 16.5 12.5 16.5ZM12.5 9C11.9067 9 11.3266 9.17595 10.8333 9.50559C10.3399 9.83524 9.95542 10.3038 9.72836 10.852C9.5013 11.4001 9.44189 12.0033 9.55764 12.5853C9.6734 13.1672 9.95912 13.7018 10.3787 14.1213C10.7982 14.5409 11.3328 14.8266 11.9147 14.9424C12.4967 15.0581 13.0999 14.9987 13.6481 14.7716C14.1962 14.5446 14.6648 14.1601 14.9944 13.6667C15.3241 13.1734 15.5 12.5933 15.5 12C15.5 11.2044 15.1839 10.4413 14.6213 9.87868C14.0587 9.31607 13.2956 9 12.5 9Z" fill="#EB4824"/>
</svg>
