<?xml version="1.0" standalone="no"?>
<!DOCTYPE svg PUBLIC "-//W3C//DTD SVG 20010904//EN"
 "http://www.w3.org/TR/2001/REC-SVG-20010904/DTD/svg10.dtd">
<svg version="1.0" xmlns="http://www.w3.org/2000/svg"
 width="1024.000000pt" height="1024.000000pt" viewBox="0 0 1024.000000 1024.000000"
 preserveAspectRatio="xMidYMid meet">
<metadata>
roof-lupin-application
</metadata>
<g transform="translate(0.000000,1024.000000) scale(0.100000,-0.100000)"
fill="#000000" stroke="none">
<path d="M0 5120 l0 -5120 5120 0 5120 0 0 5120 0 5120 -5120 0 -5120 0 0
-5120z m5222 3460 c49 -6 195 -37 325 -69 l238 -59 5 -1399 c5 -1375 5 -1399
25 -1432 25 -43 78 -71 133 -71 54 0 93 20 129 67 l28 36 3 199 c3 181 5 198
20 194 9 -3 303 -76 652 -161 349 -86 652 -160 673 -166 l37 -10 0 -142 c0
-171 8 -204 60 -251 36 -33 45 -36 99 -36 68 0 113 25 142 80 18 33 19 88 19
1312 0 703 3 1278 8 1278 4 0 93 -22 199 -49 121 -30 209 -58 238 -76 56 -32
100 -97 115 -169 8 -36 10 -515 8 -1656 l-3 -1605 -23 -56 c-32 -80 -90 -142
-170 -181 l-67 -33 -1828 -5 -1829 -5 -34 -37 c-27 -30 -34 -46 -34 -78 0 -23
7 -54 15 -70 33 -64 -103 -60 1862 -60 1982 0 1855 4 1960 -65 31 -21 67 -57
88 -88 67 -102 66 -80 63 -1018 -3 -832 -3 -845 -24 -889 -26 -58 -76 -108
-134 -134 l-45 -21 -3060 0 -3060 0 -55 31 c-60 34 -113 100 -130 164 -7 26
-9 618 -8 1802 l3 1763 26 55 c49 106 128 171 238 196 44 11 258 14 1044 14
1085 0 1029 -3 1062 60 30 58 12 137 -39 171 -18 12 -184 15 -1046 19 l-1025
5 -62 29 c-75 34 -134 95 -171 174 l-27 57 -3 710 c-2 497 0 726 8 762 13 61
55 123 108 158 30 20 346 101 1494 385 800 198 1486 364 1524 369 97 12 127
12 226 1z m1581 -379 c372 -92 679 -170 682 -173 3 -3 4 -102 3 -220 l-3 -215
-665 163 c-366 90 -675 166 -687 169 -23 5 -23 6 -23 225 0 121 3 220 8 220 4
-1 312 -76 685 -169z m22 -775 l660 -162 3 -222 c1 -122 -1 -222 -5 -222 -5 0
-315 75 -690 167 l-683 167 0 223 0 223 28 -6 c15 -3 324 -79 687 -168z m-21
-771 c370 -91 676 -165 679 -165 4 0 7 -101 7 -225 l0 -225 -27 7 c-16 3 -325
79 -688 168 l-660 162 -3 222 c-2 151 1 221 8 221 6 0 314 -74 684 -165z"/>
</g>
</svg>
