<svg width="34" height="38" viewBox="0 0 34 38" fill="none" xmlns="http://www.w3.org/2000/svg">
<g filter="url(#filter0_d_2583_7540)">
<path d="M6.40335 23.9977L17 36.272L27.6011 23.9926C27.6572 23.9272 28.0341 23.4406 28.0341 23.4406L28.0359 23.4375C29.8453 21.0965 30.8227 18.2371 30.8182 15.298C30.8182 11.6986 29.3623 8.24668 26.7709 5.70154C24.1795 3.15641 20.6648 1.72656 17 1.72656C13.3352 1.72656 9.82049 3.15641 7.22909 5.70154C4.63768 8.24668 3.18184 11.6986 3.18184 15.298C3.17759 18.2383 4.15564 21.0988 5.96595 23.4406C5.96595 23.4406 6.34318 23.9272 6.40335 23.9977Z" fill="#EB4824"/>
</g>
<defs>
<filter id="filter0_d_2583_7540" x="0.181824" y="-1.27344" width="33.6364" height="40.5449" filterUnits="userSpaceOnUse" color-interpolation-filters="sRGB">
<feFlood flood-opacity="0" result="BackgroundImageFix"/>
<feColorMatrix in="SourceAlpha" type="matrix" values="0 0 0 0 0 0 0 0 0 0 0 0 0 0 0 0 0 0 127 0" result="hardAlpha"/>
<feOffset/>
<feGaussianBlur stdDeviation="1.5"/>
<feComposite in2="hardAlpha" operator="out"/>
<feColorMatrix type="matrix" values="0 0 0 0 0 0 0 0 0 0 0 0 0 0 0 0 0 0 0.3 0"/>
<feBlend mode="normal" in2="BackgroundImageFix" result="effect1_dropShadow_2583_7540"/>
<feBlend mode="normal" in="SourceGraphic" in2="effect1_dropShadow_2583_7540" result="shape"/>
</filter>
</defs>
</svg>
