<svg width="55" height="78" viewBox="0 0 55 78" fill="none" xmlns="http://www.w3.org/2000/svg">
<g filter="url(#filter0_d_5274_2764)">
<path d="M10.2456 41.9229L27.5 61.8203L44.7616 41.9147C44.853 41.8087 45.4666 41.0199 45.4666 41.0199L45.4697 41.0149C48.4158 37.22 50.0073 32.5847 50 27.8203C50 21.9855 47.6294 16.3898 43.4099 12.264C39.1903 8.13816 33.4674 5.82031 27.5 5.82031C21.5326 5.82031 15.8097 8.13816 11.5901 12.264C7.37055 16.3898 5.00002 21.9855 5.00002 27.8203C4.99311 32.5867 6.58566 37.2237 9.53336 41.0199C9.53336 41.0199 10.1476 41.8087 10.2456 41.9229Z" fill="#EB4824"/>
</g>
<g filter="url(#filter1_d_5274_2764)">
<circle cx="27.5456" cy="67.9523" r="3.32147" fill="#EB4824"/>
</g>
<defs>
<filter id="filter0_d_5274_2764" x="0.105263" y="0.925575" width="54.7895" height="65.7895" filterUnits="userSpaceOnUse" color-interpolation-filters="sRGB">
<feFlood flood-opacity="0" result="BackgroundImageFix"/>
<feColorMatrix in="SourceAlpha" type="matrix" values="0 0 0 0 0 0 0 0 0 0 0 0 0 0 0 0 0 0 127 0" result="hardAlpha"/>
<feOffset/>
<feGaussianBlur stdDeviation="2.44737"/>
<feComposite in2="hardAlpha" operator="out"/>
<feColorMatrix type="matrix" values="0 0 0 0 0 0 0 0 0 0 0 0 0 0 0 0 0 0 0.3 0"/>
<feBlend mode="normal" in2="BackgroundImageFix" result="effect1_dropShadow_5274_2764"/>
<feBlend mode="normal" in="SourceGraphic" in2="effect1_dropShadow_5274_2764" result="shape"/>
</filter>
<filter id="filter1_d_5274_2764" x="17.5812" y="57.9879" width="19.9288" height="19.9285" filterUnits="userSpaceOnUse" color-interpolation-filters="sRGB">
<feFlood flood-opacity="0" result="BackgroundImageFix"/>
<feColorMatrix in="SourceAlpha" type="matrix" values="0 0 0 0 0 0 0 0 0 0 0 0 0 0 0 0 0 0 127 0" result="hardAlpha"/>
<feOffset/>
<feGaussianBlur stdDeviation="3.32147"/>
<feComposite in2="hardAlpha" operator="out"/>
<feColorMatrix type="matrix" values="0 0 0 0 0 0 0 0 0 0 0 0 0 0 0 0 0 0 0.3 0"/>
<feBlend mode="normal" in2="BackgroundImageFix" result="effect1_dropShadow_5274_2764"/>
<feBlend mode="normal" in="SourceGraphic" in2="effect1_dropShadow_5274_2764" result="shape"/>
</filter>
</defs>
</svg>
