<svg width="56" height="56" viewBox="0 0 56 56" fill="none" xmlns="http://www.w3.org/2000/svg">
<rect width="56" height="56" fill="white" style="mix-blend-mode:multiply"/>
<g filter="url(#filter0_d_2429_3334)">
<path d="M13.4296 34.9451L28 52L42.5764 34.9381C42.6536 34.8472 43.1718 34.1711 43.1718 34.1711L43.1744 34.1668C45.6623 30.914 47.0062 26.9409 47 22.8571C47 17.8559 44.9982 13.0595 41.435 9.52313C37.8718 5.98673 33.0391 4 28 4C22.9609 4 18.1282 5.98673 14.565 9.52313C11.0018 13.0595 9.00002 17.8559 9.00002 22.8571C8.99418 26.9426 10.339 30.9172 12.8282 34.1711C12.8282 34.1711 13.3469 34.8472 13.4296 34.9451Z" fill="#EB4824"/>
<path d="M42.3467 33.603L42.3445 33.6067L42.2967 33.6689C42.2471 33.7334 42.1804 33.8201 42.1114 33.9096C42.0422 33.9992 41.9715 34.0906 41.9137 34.1647C41.8847 34.2018 41.8599 34.2333 41.8407 34.2576C41.8261 34.276 41.8182 34.2858 41.8152 34.2895C41.8142 34.2907 41.8138 34.2912 41.8138 34.2912L28 50.4605L14.1933 34.2996C14.1935 34.2997 14.1933 34.2996 14.1928 34.2989C14.1906 34.2962 14.1817 34.2853 14.1634 34.2622C14.1435 34.2371 14.1182 34.2049 14.0888 34.1673C14.0302 34.0922 13.9588 34.0002 13.8893 33.9101C13.8198 33.8202 13.7529 33.7332 13.7032 33.6687L13.6437 33.5912L13.6273 33.5698L13.623 33.5643L13.6224 33.5635C13.6223 33.5633 13.6222 33.5631 13.622 33.563C11.2664 30.4835 9.9945 26.723 10 22.8586V22.8571C10 18.1236 11.8946 13.5824 15.2694 10.2329C18.6445 6.88319 23.2237 5 28 5C32.7763 5 37.3555 6.88319 40.7306 10.2329C44.1054 13.5824 46 18.1236 46 22.8571V22.8587C46.0058 26.7217 44.7346 30.4808 42.3801 33.5593L42.3467 33.603Z" stroke="#EB4824" stroke-width="2"/>
</g>
<path d="M19.7074 17.8261L27.49 14.2353C27.8136 14.086 28.1864 14.086 28.51 14.2353L36.2926 17.8261C36.7238 18.0251 37 18.4566 37 18.9315V26.5955V30.7826C37 31.455 36.455 32 35.7826 32H20.2174C19.545 32 19 31.455 19 30.7826V26.5955V18.9315C19 18.4566 19.2762 18.0251 19.7074 17.8261Z" fill="white"/>
<defs>
<filter id="filter0_d_2429_3334" x="7" y="4" width="42" height="52" filterUnits="userSpaceOnUse" color-interpolation-filters="sRGB">
<feFlood flood-opacity="0" result="BackgroundImageFix"/>
<feColorMatrix in="SourceAlpha" type="matrix" values="0 0 0 0 0 0 0 0 0 0 0 0 0 0 0 0 0 0 127 0" result="hardAlpha"/>
<feOffset dy="2"/>
<feGaussianBlur stdDeviation="1"/>
<feComposite in2="hardAlpha" operator="out"/>
<feColorMatrix type="matrix" values="0 0 0 0 0 0 0 0 0 0 0 0 0 0 0 0 0 0 0.25 0"/>
<feBlend mode="normal" in2="BackgroundImageFix" result="effect1_dropShadow_2429_3334"/>
<feBlend mode="normal" in="SourceGraphic" in2="effect1_dropShadow_2429_3334" result="shape"/>
</filter>
</defs>
</svg>
