<svg width="22" height="22" viewBox="0 0 22 22" fill="none" xmlns="http://www.w3.org/2000/svg">
<path d="M11.8184 20.625L10.625 19.9375L13.375 15.125H17.5C17.6807 15.1253 17.8596 15.09 18.0266 15.021C18.1935 14.952 18.3452 14.8507 18.473 14.723C18.6007 14.5952 18.702 14.4435 18.771 14.2766C18.84 14.1096 18.8753 13.9307 18.875 13.75V5.5C18.8753 5.31935 18.84 5.14041 18.771 4.97345C18.702 4.80648 18.6007 4.65478 18.473 4.52704C18.3452 4.3993 18.1935 4.29803 18.0266 4.22904C17.8596 4.16005 17.6807 4.12469 17.5 4.125H3.75C3.56935 4.12469 3.39041 4.16005 3.22345 4.22904C3.05648 4.29803 2.90478 4.3993 2.77704 4.52704C2.6493 4.65478 2.54803 4.80648 2.47904 4.97345C2.41005 5.14041 2.37469 5.31935 2.375 5.5V13.75C2.37469 13.9307 2.41005 14.1096 2.47904 14.2766C2.54803 14.4435 2.6493 14.5952 2.77704 14.723C2.90478 14.8507 3.05648 14.952 3.22345 15.021C3.39041 15.09 3.56935 15.1253 3.75 15.125H9.9375V16.5H3.75C3.38885 16.5001 3.03122 16.429 2.69755 16.2908C2.36387 16.1526 2.06069 15.9501 1.80532 15.6947C1.54994 15.4393 1.34738 15.1361 1.2092 14.8025C1.07102 14.4688 0.999937 14.1112 1 13.75V5.5C0.999892 5.13883 1.07095 4.78119 1.20911 4.44749C1.34727 4.1138 1.54983 3.8106 1.80521 3.55521C2.0606 3.29983 2.3638 3.09727 2.69749 2.95911C3.03119 2.82095 3.38883 2.74989 3.75 2.75H17.5C17.8612 2.74989 18.2188 2.82095 18.5525 2.95911C18.8862 3.09727 19.1894 3.29983 19.4448 3.55521C19.7002 3.8106 19.9027 4.1138 20.0409 4.44749C20.1791 4.78119 20.2501 5.13883 20.25 5.5V13.75C20.2501 14.1112 20.179 14.4688 20.0408 14.8025C19.9026 15.1361 19.7001 15.4393 19.4447 15.6947C19.1893 15.9501 18.8861 16.1526 18.5525 16.2908C18.2188 16.429 17.8612 16.5001 17.5 16.5H14.1757L11.8184 20.625Z" fill="#757575"/>
<path d="M10.5019 13.7296C10.1202 13.7296 9.83644 13.4496 9.83644 13.0496C9.83644 12.6596 10.1202 12.3796 10.5019 12.3796C10.8836 12.3796 11.1576 12.6596 11.1576 13.0496C11.1576 13.4496 10.8836 13.7296 10.5019 13.7296ZM8.29999 7.32961C8.67187 6.30961 9.64072 5.59961 10.6487 5.59961C12.0971 5.59961 13.0562 6.57961 12.9974 7.97961C12.9583 8.69961 12.5962 9.39961 11.6371 10.1396C11.1674 10.4996 11.0695 10.6896 11.0793 11.4096L9.89516 11.4296C9.88538 10.3696 10.1888 9.72961 10.9325 9.15961C11.6371 8.62961 11.7937 8.32961 11.8133 7.91961C11.8426 7.25961 11.3631 6.79961 10.6487 6.79961C10.1202 6.79961 9.61136 7.18961 9.40584 7.74961L8.29999 7.32961Z" fill="#757575"/>
</svg>
