<svg width="22" height="22" viewBox="0 0 22 22" fill="none" xmlns="http://www.w3.org/2000/svg">
<path d="M14.4375 20.625C13.3497 20.625 12.2863 20.3024 11.3819 19.6981C10.4774 19.0937 9.77244 18.2348 9.35616 17.2298C8.93988 16.2248 8.83096 15.1189 9.04318 14.052C9.2554 12.9851 9.77922 12.0051 10.5484 11.2359C11.3176 10.4667 12.2976 9.9429 13.3645 9.73068C14.4314 9.51846 15.5373 9.62738 16.5423 10.0437C17.5473 10.4599 18.4062 11.1649 19.0106 12.0694C19.6149 12.9738 19.9375 14.0372 19.9375 15.125C19.9375 16.5837 19.358 17.9826 18.3266 19.0141C17.2951 20.0455 15.8962 20.625 14.4375 20.625ZM14.4375 11C13.6217 11 12.8241 11.2419 12.1458 11.6952C11.4674 12.1484 10.9387 12.7927 10.6265 13.5464C10.3143 14.3002 10.2326 15.1296 10.3918 15.9297C10.5509 16.7299 10.9438 17.4649 11.5207 18.0418C12.0976 18.6187 12.8326 19.0116 13.6328 19.1707C14.4329 19.3299 15.2623 19.2482 16.0161 18.936C16.7698 18.6238 17.4141 18.0951 17.8673 17.4167C18.3206 16.7384 18.5625 15.9408 18.5625 15.125C18.5625 14.031 18.1279 12.9818 17.3543 12.2082C16.5807 11.4346 15.5315 11 14.4375 11Z" fill="#757575"/>
<path d="M15.5306 17.1875L13.75 15.4069V12.375H15.125V14.8431L16.5 16.2181L15.5306 17.1875Z" fill="#757575"/>
<path d="M19.25 4.125C19.25 3.76033 19.1051 3.41059 18.8473 3.15273C18.5894 2.89487 18.2397 2.75 17.875 2.75H15.125V1.375H13.75V2.75H8.25V1.375H6.875V2.75H4.125C3.76033 2.75 3.41059 2.89487 3.15273 3.15273C2.89487 3.41059 2.75 3.76033 2.75 4.125V17.875C2.75 18.2397 2.89487 18.5894 3.15273 18.8473C3.41059 19.1051 3.76033 19.25 4.125 19.25H6.875V17.875H4.125V4.125H6.875V5.5H8.25V4.125H13.75V5.5H15.125V4.125H17.875V8.25H19.25V4.125Z" fill="#757575"/>
</svg>
