<svg width="22" height="22" viewBox="0 0 22 22" fill="none" xmlns="http://www.w3.org/2000/svg">
<path d="M11 5.5L12.3145 8.04581L15.125 8.45419L13.0625 10.3125L13.75 13.0625L11 11.5156L8.25 13.0625L8.9375 10.3125L6.875 8.45419L9.7625 8.04581L11 5.5Z" fill="#757575"/>
<path d="M12.1934 20.625L11 19.9375L13.75 15.125H17.875C18.0557 15.1253 18.2346 15.09 18.4016 15.021C18.5685 14.952 18.7202 14.8507 18.848 14.723C18.9757 14.5952 19.077 14.4435 19.146 14.2766C19.215 14.1096 19.2503 13.9307 19.25 13.75V5.5C19.2503 5.31935 19.215 5.14041 19.146 4.97345C19.077 4.80648 18.9757 4.65478 18.848 4.52704C18.7202 4.3993 18.5685 4.29803 18.4016 4.22904C18.2346 4.16005 18.0557 4.12469 17.875 4.125H4.125C3.94435 4.12469 3.76541 4.16005 3.59845 4.22904C3.43148 4.29803 3.27978 4.3993 3.15204 4.52704C3.0243 4.65478 2.92303 4.80648 2.85404 4.97345C2.78505 5.14041 2.74969 5.31935 2.75 5.5V13.75C2.74969 13.9307 2.78505 14.1096 2.85404 14.2766C2.92303 14.4435 3.0243 14.5952 3.15204 14.723C3.27978 14.8507 3.43148 14.952 3.59845 15.021C3.76541 15.09 3.94435 15.1253 4.125 15.125H10.3125V16.5H4.125C3.76385 16.5001 3.40622 16.429 3.07255 16.2908C2.73887 16.1526 2.43569 15.9501 2.18032 15.6947C1.92494 15.4393 1.72238 15.1361 1.5842 14.8025C1.44602 14.4688 1.37494 14.1112 1.375 13.75V5.5C1.37489 5.13883 1.44595 4.78119 1.58411 4.44749C1.72227 4.1138 1.92483 3.8106 2.18021 3.55521C2.4356 3.29983 2.7388 3.09727 3.07249 2.95911C3.40619 2.82095 3.76383 2.74989 4.125 2.75H17.875C18.2362 2.74989 18.5938 2.82095 18.9275 2.95911C19.2612 3.09727 19.5644 3.29983 19.8198 3.55521C20.0752 3.8106 20.2777 4.1138 20.4159 4.44749C20.5541 4.78119 20.6251 5.13883 20.625 5.5V13.75C20.6251 14.1112 20.554 14.4688 20.4158 14.8025C20.2776 15.1361 20.0751 15.4393 19.8197 15.6947C19.5643 15.9501 19.2611 16.1526 18.9275 16.2908C18.5938 16.429 18.2362 16.5001 17.875 16.5H14.5507L12.1934 20.625Z" fill="#757575"/>
</svg>
