<svg width="23" height="22" viewBox="0 0 23 22" fill="none" xmlns="http://www.w3.org/2000/svg">
<path d="M20.4375 9.625C20.6198 9.625 20.7947 9.55257 20.9236 9.42364C21.0526 9.2947 21.125 9.11984 21.125 8.9375V5.5C21.125 5.13533 20.9801 4.78559 20.7223 4.52773C20.4644 4.26987 20.1147 4.125 19.75 4.125H3.25C2.88533 4.125 2.53559 4.26987 2.27773 4.52773C2.01987 4.78559 1.875 5.13533 1.875 5.5V8.9375C1.875 9.11984 1.94743 9.2947 2.07636 9.42364C2.2053 9.55257 2.38016 9.625 2.5625 9.625C2.92717 9.625 3.27691 9.76987 3.53477 10.0277C3.79263 10.2856 3.9375 10.6353 3.9375 11C3.9375 11.3647 3.79263 11.7144 3.53477 11.9723C3.27691 12.2301 2.92717 12.375 2.5625 12.375C2.38016 12.375 2.2053 12.4474 2.07636 12.5764C1.94743 12.7053 1.875 12.8802 1.875 13.0625V16.5C1.875 16.8647 2.01987 17.2144 2.27773 17.4723C2.53559 17.7301 2.88533 17.875 3.25 17.875H19.75C20.1147 17.875 20.4644 17.7301 20.7223 17.4723C20.9801 17.2144 21.125 16.8647 21.125 16.5V13.0625C21.125 12.8802 21.0526 12.7053 20.9236 12.5764C20.7947 12.4474 20.6198 12.375 20.4375 12.375C20.0728 12.375 19.7231 12.2301 19.4652 11.9723C19.2074 11.7144 19.0625 11.3647 19.0625 11C19.0625 10.6353 19.2074 10.2856 19.4652 10.0277C19.7231 9.76987 20.0728 9.625 20.4375 9.625ZM19.75 13.6606V16.5H14.9375V14.4375H13.5625V16.5H3.25V13.6606C3.8385 13.5068 4.35939 13.1622 4.73117 12.6808C5.10294 12.1994 5.3046 11.6083 5.3046 11C5.3046 10.3917 5.10294 9.80063 4.73117 9.3192C4.35939 8.83777 3.8385 8.49319 3.25 8.33938V5.5H13.5625V7.5625H14.9375V5.5H19.75V8.33938C19.1615 8.49319 18.6406 8.83777 18.2688 9.3192C17.8971 9.80063 17.6954 10.3917 17.6954 11C17.6954 11.6083 17.8971 12.1994 18.2688 12.6808C18.6406 13.1622 19.1615 13.5068 19.75 13.6606Z" fill="#757575"/>
<path d="M14.9375 8.9375H13.5625V13.0625H14.9375V8.9375Z" fill="#757575"/>
</svg>
