<svg width="16" height="16" viewBox="0 0 16 16" fill="none" xmlns="http://www.w3.org/2000/svg">
<path d="M15 15H14V12.5C13.9992 11.8372 13.7356 11.2017 13.2669 10.7331C12.7983 10.2644 12.1628 10.0008 11.5 10V9C12.4279 9.00103 13.3176 9.37011 13.9737 10.0263C14.6299 10.6824 14.999 11.5721 15 12.5V15Z" fill="#424242"/>
<path d="M11 15H10V12.5C9.99922 11.8372 9.73558 11.2018 9.2669 10.7331C8.79823 10.2644 8.1628 10.0008 7.5 10H4.5C3.8372 10.0008 3.20177 10.2644 2.7331 10.7331C2.26442 11.2018 2.00078 11.8372 2 12.5V15H1V12.5C1.00109 11.5721 1.37018 10.6825 2.02632 10.0263C2.68247 9.37018 3.57208 9.00109 4.5 9H7.5C8.42792 9.00109 9.31753 9.37018 9.97368 10.0263C10.6298 10.6825 10.9989 11.5721 11 12.5V15Z" fill="#424242"/>
<path d="M10 1V2C10.663 2 11.2989 2.26339 11.7678 2.73223C12.2366 3.20107 12.5 3.83696 12.5 4.5C12.5 5.16304 12.2366 5.79893 11.7678 6.26777C11.2989 6.73661 10.663 7 10 7V8C10.9283 8 11.8185 7.63125 12.4749 6.97487C13.1313 6.3185 13.5 5.42826 13.5 4.5C13.5 3.57174 13.1313 2.6815 12.4749 2.02513C11.8185 1.36875 10.9283 1 10 1Z" fill="#424242"/>
<path d="M6 2C6.49445 2 6.9778 2.14662 7.38893 2.42133C7.80005 2.69603 8.12048 3.08648 8.3097 3.54329C8.49892 4.00011 8.54843 4.50277 8.45196 4.98773C8.3555 5.47268 8.1174 5.91814 7.76777 6.26777C7.41814 6.6174 6.97268 6.8555 6.48773 6.95196C6.00277 7.04843 5.50011 6.99892 5.04329 6.8097C4.58648 6.62048 4.19603 6.30005 3.92133 5.88893C3.64662 5.4778 3.5 4.99445 3.5 4.5C3.5 3.83696 3.76339 3.20107 4.23223 2.73223C4.70107 2.26339 5.33696 2 6 2ZM6 1C5.30777 1 4.63108 1.20527 4.0555 1.58986C3.47993 1.97444 3.03133 2.52107 2.76642 3.16061C2.50151 3.80015 2.4322 4.50388 2.56725 5.18282C2.7023 5.86175 3.03564 6.48539 3.52513 6.97487C4.01461 7.46436 4.63825 7.7977 5.31718 7.93275C5.99612 8.0678 6.69985 7.99849 7.33939 7.73358C7.97893 7.46867 8.52556 7.02007 8.91014 6.4445C9.29473 5.86892 9.5 5.19223 9.5 4.5C9.5 3.57174 9.13125 2.6815 8.47487 2.02513C7.8185 1.36875 6.92826 1 6 1Z" fill="#424242"/>
</svg>
