<svg width="18" height="18" viewBox="0 0 18 18" fill="none" xmlns="http://www.w3.org/2000/svg">
<path d="M9.00001 10.125C8.44375 10.125 7.89998 9.96005 7.43746 9.65101C6.97495 9.34197 6.61447 8.90271 6.40159 8.3888C6.18872 7.87488 6.13303 7.30938 6.24155 6.76381C6.35007 6.21824 6.61793 5.7171 7.01127 5.32376C7.4046 4.93043 7.90574 4.66256 8.45131 4.55404C8.99689 4.44552 9.56239 4.50122 10.0763 4.71409C10.5902 4.92696 11.0295 5.28745 11.3385 5.74996C11.6476 6.21247 11.8125 6.75624 11.8125 7.3125C11.8117 8.05816 11.5151 8.77304 10.9878 9.3003C10.4605 9.82756 9.74567 10.1242 9.00001 10.125ZM9.00001 5.625C8.66625 5.625 8.33999 5.72397 8.06248 5.9094C7.78497 6.09482 7.56868 6.35837 7.44096 6.66672C7.31324 6.97507 7.27982 7.31437 7.34493 7.64172C7.41004 7.96906 7.57076 8.26974 7.80676 8.50574C8.04276 8.74174 8.34345 8.90246 8.67079 8.96758C8.99813 9.03269 9.33743 8.99927 9.64578 8.87155C9.95413 8.74382 10.2177 8.52753 10.4031 8.25002C10.5885 7.97252 10.6875 7.64626 10.6875 7.3125C10.687 6.8651 10.5091 6.43616 10.1927 6.1198C9.87634 5.80344 9.44741 5.62549 9.00001 5.625Z" fill="#424242"/>
<path d="M9.00001 16.875L4.25504 11.2789C4.22809 11.2467 4.05917 11.0249 4.05917 11.0249C3.24856 9.9572 2.81061 8.65305 2.81251 7.3125C2.81251 5.67147 3.4644 4.09766 4.62478 2.93728C5.78516 1.7769 7.35898 1.125 9.00001 1.125C10.641 1.125 12.2148 1.7769 13.3752 2.93728C14.5356 4.09766 15.1875 5.67147 15.1875 7.3125C15.1895 8.6525 14.7519 9.95615 13.9417 11.0235L13.9408 11.0249C13.9408 11.0249 13.7721 11.2467 13.7469 11.2765L9.00001 16.875ZM4.95704 10.3472C4.95704 10.3472 5.08833 10.5205 5.11825 10.5578L9.00001 15.1357L12.8869 10.5513C12.9116 10.5203 13.0437 10.3456 13.0437 10.3456C13.7059 9.47322 14.0638 8.40776 14.0625 7.3125C14.0625 5.96984 13.5291 4.68217 12.5797 3.73277C11.6303 2.78337 10.3427 2.25 9.00001 2.25C7.65735 2.25 6.36968 2.78337 5.42028 3.73277C4.47088 4.68217 3.93751 5.96984 3.93751 7.3125C3.93626 8.40835 4.2944 9.47437 4.95704 10.3472Z" fill="#424242"/>
</svg>
