<svg width="20" height="20" viewBox="0 0 20 20" fill="none" xmlns="http://www.w3.org/2000/svg">
<path d="M18.125 8.75C18.2908 8.75 18.4497 8.68415 18.5669 8.56694C18.6842 8.44973 18.75 8.29076 18.75 8.125V5C18.75 4.66848 18.6183 4.35054 18.3839 4.11612C18.1495 3.8817 17.8315 3.75 17.5 3.75H2.5C2.16848 3.75 1.85054 3.8817 1.61612 4.11612C1.3817 4.35054 1.25 4.66848 1.25 5V8.125C1.25 8.29076 1.31585 8.44973 1.43306 8.56694C1.55027 8.68415 1.70924 8.75 1.875 8.75C2.20652 8.75 2.52446 8.8817 2.75888 9.11612C2.9933 9.35054 3.125 9.66848 3.125 10C3.125 10.3315 2.9933 10.6495 2.75888 10.8839C2.52446 11.1183 2.20652 11.25 1.875 11.25C1.70924 11.25 1.55027 11.3158 1.43306 11.4331C1.31585 11.5503 1.25 11.7092 1.25 11.875V15C1.25 15.3315 1.3817 15.6495 1.61612 15.8839C1.85054 16.1183 2.16848 16.25 2.5 16.25H17.5C17.8315 16.25 18.1495 16.1183 18.3839 15.8839C18.6183 15.6495 18.75 15.3315 18.75 15V11.875C18.75 11.7092 18.6842 11.5503 18.5669 11.4331C18.4497 11.3158 18.2908 11.25 18.125 11.25C17.7935 11.25 17.4755 11.1183 17.2411 10.8839C17.0067 10.6495 16.875 10.3315 16.875 10C16.875 9.66848 17.0067 9.35054 17.2411 9.11612C17.4755 8.8817 17.7935 8.75 18.125 8.75ZM17.5 12.4188V15H13.125V13.125H11.875V15H2.5V12.4188C3.035 12.2789 3.50854 11.9657 3.84651 11.528C4.18449 11.0903 4.36782 10.553 4.36782 10C4.36782 9.44703 4.18449 8.90966 3.84651 8.472C3.50854 8.03434 3.035 7.72108 2.5 7.58125V5H11.875V6.875H13.125V5H17.5V7.58125C16.965 7.72108 16.4915 8.03434 16.1535 8.472C15.8155 8.90966 15.6322 9.44703 15.6322 10C15.6322 10.553 15.8155 11.0903 16.1535 11.528C16.4915 11.9657 16.965 12.2789 17.5 12.4188Z" fill="#757575"/>
<path d="M13.125 8.125H11.875V11.875H13.125V8.125Z" fill="#757575"/>
</svg>
