<svg width="20" height="20" viewBox="0 0 20 20" fill="none" xmlns="http://www.w3.org/2000/svg">
<path d="M11.0849 18.75L10 18.125L12.5 13.75H16.25C16.4142 13.7503 16.5769 13.7181 16.7287 13.6554C16.8805 13.5927 17.0184 13.5006 17.1345 13.3845C17.2506 13.2684 17.3427 13.1305 17.4054 12.9787C17.4681 12.8269 17.5003 12.6642 17.5 12.5V5C17.5003 4.83577 17.4681 4.6731 17.4054 4.52131C17.3427 4.36953 17.2506 4.23162 17.1345 4.11549C17.0184 3.99936 16.8805 3.9073 16.7287 3.84458C16.5769 3.78186 16.4142 3.74972 16.25 3.75H3.75C3.58577 3.74972 3.4231 3.78186 3.27131 3.84458C3.11953 3.9073 2.98162 3.99936 2.86549 4.11549C2.74936 4.23162 2.6573 4.36953 2.59458 4.52131C2.53186 4.6731 2.49972 4.83577 2.5 5V12.5C2.49972 12.6642 2.53186 12.8269 2.59458 12.9787C2.6573 13.1305 2.74936 13.2684 2.86549 13.3845C2.98162 13.5006 3.11953 13.5927 3.27131 13.6554C3.4231 13.7181 3.58577 13.7503 3.75 13.75H9.375V15H3.75C3.42168 15.0001 3.09656 14.9354 2.79322 14.8098C2.48988 14.6842 2.21426 14.5001 1.98211 14.2679C1.74995 14.0357 1.5658 13.7601 1.44018 13.4568C1.31457 13.1534 1.24994 12.8283 1.25 12.5V5C1.2499 4.67167 1.3145 4.34653 1.4401 4.04318C1.5657 3.73982 1.74985 3.46418 1.98201 3.23201C2.21418 2.99985 2.48982 2.8157 2.79318 2.6901C3.09653 2.5645 3.42167 2.4999 3.75 2.5H16.25C16.5783 2.4999 16.9035 2.5645 17.2068 2.6901C17.5102 2.8157 17.7858 2.99985 18.018 3.23201C18.2502 3.46418 18.4343 3.73982 18.5599 4.04318C18.6855 4.34653 18.7501 4.67167 18.75 5V12.5C18.7501 12.8283 18.6854 13.1534 18.5598 13.4568C18.4342 13.7601 18.2501 14.0357 18.0179 14.2679C17.7857 14.5001 17.5101 14.6842 17.2068 14.8098C16.9034 14.9354 16.5783 15.0001 16.25 15H13.2279L11.0849 18.75Z" fill="white"/>
<circle cx="9.99984" cy="8.33333" r="0.833333" fill="white"/>
<circle cx="6.66683" cy="8.33333" r="0.833333" fill="white"/>
<circle cx="13.3333" cy="8.33333" r="0.833333" fill="white"/>
</svg>
