<svg width="20" height="20" viewBox="0 0 20 20" fill="none" xmlns="http://www.w3.org/2000/svg">
<path fill-rule="evenodd" clip-rule="evenodd" d="M16.25 2.5H13.75V1.25H12.5V2.5H7.5V1.25H6.25V2.5H3.75C3.41848 2.5 3.10054 2.6317 2.86612 2.86612C2.6317 3.10054 2.5 3.41848 2.5 3.75V16.25C2.5 16.5815 2.6317 16.8995 2.86612 17.1339C3.10054 17.3683 3.41848 17.5 3.75 17.5H8.75V16.25H3.75V3.75H6.25V5H7.5V3.75H12.5V5H13.75V3.75H16.25V8.75H17.5V3.75C17.5 3.41848 17.3683 3.10054 17.1339 2.86612C16.8995 2.6317 16.5815 2.5 16.25 2.5Z" fill="white"/>
<line x1="11.7073" y1="11.5719" x2="17.461" y2="17.3253" stroke="white" stroke-width="1.1"/>
<circle cx="14.5" cy="14.5" r="3.95" stroke="white" stroke-width="1.1"/>
</svg>
