<svg width="18" height="17" viewBox="0 0 18 17" fill="none" xmlns="http://www.w3.org/2000/svg">
<path d="M10.0849 16.75L9 16.125L11.5 11.75H15.25C15.4142 11.7503 15.5769 11.7181 15.7287 11.6554C15.8805 11.5927 16.0184 11.5006 16.1345 11.3845C16.2506 11.2684 16.3427 11.1305 16.4054 10.9787C16.4681 10.8269 16.5003 10.6642 16.5 10.5V3C16.5003 2.83577 16.4681 2.6731 16.4054 2.52131C16.3427 2.36953 16.2506 2.23162 16.1345 2.11549C16.0184 1.99936 15.8805 1.9073 15.7287 1.84458C15.5769 1.78186 15.4142 1.74972 15.25 1.75H2.75C2.58577 1.74972 2.4231 1.78186 2.27131 1.84458C2.11953 1.9073 1.98162 1.99936 1.86549 2.11549C1.74936 2.23162 1.6573 2.36953 1.59458 2.52131C1.53186 2.6731 1.49972 2.83577 1.5 3V10.5C1.49972 10.6642 1.53186 10.8269 1.59458 10.9787C1.6573 11.1305 1.74936 11.2684 1.86549 11.3845C1.98162 11.5006 2.11953 11.5927 2.27131 11.6554C2.4231 11.7181 2.58577 11.7503 2.75 11.75H8.375V13H2.75C2.42168 13.0001 2.09656 12.9354 1.79322 12.8098C1.48988 12.6842 1.21426 12.5001 0.982105 12.2679C0.749947 12.0357 0.565801 11.7601 0.440184 11.4568C0.314568 11.1534 0.249943 10.8283 0.25 10.5V3C0.249902 2.67167 0.314499 2.34653 0.440101 2.04318C0.565702 1.73982 0.749847 1.46418 0.982013 1.23201C1.21418 0.999847 1.48982 0.815702 1.79318 0.6901C2.09653 0.564499 2.42167 0.499902 2.75 0.5H15.25C15.5783 0.499902 15.9035 0.564499 16.2068 0.6901C16.5102 0.815702 16.7858 0.999847 17.018 1.23201C17.2502 1.46418 17.4343 1.73982 17.5599 2.04318C17.6855 2.34653 17.7501 2.67167 17.75 3V10.5C17.7501 10.8283 17.6854 11.1534 17.5598 11.4568C17.4342 11.7601 17.2501 12.0357 17.0179 12.2679C16.7857 12.5001 16.5101 12.6842 16.2068 12.8098C15.9034 12.9354 15.5783 13.0001 15.25 13H12.2279L10.0849 16.75Z" fill="white"/>
</svg>
