<svg width="20" height="20" viewBox="0 0 20 20" fill="none" xmlns="http://www.w3.org/2000/svg">
<path d="M17.9419 12.0581L16.25 10.3662V8.125C16.248 6.57622 15.6718 5.08319 14.6328 3.93462C13.5938 2.78605 12.1658 2.06352 10.625 1.90675V0.625H9.375V1.90675C7.83417 2.06352 6.4062 2.78605 5.36721 3.93462C4.32822 5.08319 3.75201 6.57622 3.75 8.125V10.3662L2.05806 12.0581C1.94087 12.1753 1.87502 12.3343 1.875 12.5V14.375C1.875 14.5408 1.94085 14.6997 2.05806 14.8169C2.17527 14.9342 2.33424 15 2.5 15H6.875V15.4855C6.86145 16.2784 7.14095 17.0483 7.65993 17.6479C8.17891 18.2475 8.90088 18.6344 9.6875 18.7347C10.122 18.7778 10.5606 18.7295 10.9753 18.5929C11.39 18.4563 11.7715 18.2344 12.0953 17.9415C12.419 17.6486 12.6779 17.2912 12.8553 16.8922C13.0326 16.4933 13.1245 16.0616 13.125 15.625V15H17.5C17.6658 15 17.8247 14.9342 17.9419 14.8169C18.0592 14.6997 18.125 14.5408 18.125 14.375V12.5C18.125 12.3343 18.0591 12.1753 17.9419 12.0581ZM11.875 15.625C11.875 16.1223 11.6775 16.5992 11.3258 16.9508C10.9742 17.3025 10.4973 17.5 10 17.5C9.50272 17.5 9.02581 17.3025 8.67417 16.9508C8.32254 16.5992 8.125 16.1223 8.125 15.625V15H11.875V15.625ZM16.875 13.75H3.125V12.7588L4.81687 11.0669C4.93409 10.9497 4.99996 10.7907 5 10.625V8.125C5 6.79892 5.52678 5.52715 6.46447 4.58947C7.40215 3.65178 8.67392 3.125 10 3.125C11.3261 3.125 12.5979 3.65178 13.5355 4.58947C14.4732 5.52715 15 6.79892 15 8.125V10.625C15 10.7907 15.0659 10.9497 15.1831 11.0669L16.875 12.7588V13.75Z" fill="#757575"/>
</svg>
