<svg width="12" height="12" viewBox="0 0 12 12" fill="none" xmlns="http://www.w3.org/2000/svg">
<rect width="12" height="12" fill="white" style="mix-blend-mode:multiply"/>
<path d="M7.62374 8.05501L8.46374 7.21501C8.57688 7.10328 8.72002 7.02679 8.87579 6.99484C9.03155 6.96289 9.19325 6.97685 9.34124 7.03502L10.365 7.44376C10.5145 7.50447 10.6428 7.60808 10.7335 7.74155C10.8243 7.87502 10.8735 8.03237 10.875 8.19376V10.0688C10.8741 10.1786 10.851 10.287 10.8071 10.3877C10.7632 10.4883 10.6994 10.579 10.6195 10.6544C10.5397 10.7297 10.4454 10.7881 10.3423 10.826C10.2393 10.8639 10.1296 10.8806 10.02 10.875C2.84624 10.4288 1.39874 4.35377 1.12499 2.02877C1.11228 1.91459 1.12389 1.79902 1.15906 1.68966C1.19422 1.58029 1.25214 1.47961 1.32901 1.39424C1.40588 1.30887 1.49996 1.24074 1.60505 1.19434C1.71014 1.14794 1.82386 1.12431 1.93874 1.12502H3.74999C3.91162 1.12549 4.06941 1.17432 4.20306 1.2652C4.33672 1.35609 4.44013 1.48488 4.49999 1.63502L4.90874 2.65877C4.96883 2.80617 4.98417 2.96801 4.95282 3.12407C4.92147 3.28013 4.84484 3.4235 4.73249 3.53627L3.89249 4.37627C3.89249 4.37627 4.37624 7.65001 7.62374 8.05501Z" fill="#EB4824"/>
</svg>
