<svg width="18" height="18" viewBox="0 0 18 18" fill="none" xmlns="http://www.w3.org/2000/svg">
<path d="M3.375 3.375H14.7217L12.7046 1.35793L13.5 0.5625L16.875 3.9375L13.5 7.3125L12.7046 6.51707L14.7217 4.5H3.375V8.4375H2.25V4.5C2.25036 4.20174 2.369 3.9158 2.5799 3.7049C2.7908 3.494 3.07674 3.37536 3.375 3.375Z" fill="#9E9E9E"/>
<path d="M5.29543 11.4829L3.27831 13.5H14.625V9.5625H15.75V13.5C15.7496 13.7983 15.631 14.0842 15.4201 14.2951C15.2092 14.506 14.9233 14.6246 14.625 14.625H3.27831L5.29537 16.6421L4.5 17.4375L1.125 14.0625L4.5 10.6875L5.29543 11.4829Z" fill="#9E9E9E"/>
</svg>
