<svg width="30" height="30" viewBox="0 0 30 30" fill="none" xmlns="http://www.w3.org/2000/svg">
<path d="M19.875 10.9375L18.7294 12.0831L20.8256 14.1875H9.17438L11.2706 12.0831L10.125 10.9375L6.0625 15L10.125 19.0625L11.2706 17.9169L9.17438 15.8125H20.8256L18.7294 17.9169L19.875 19.0625L23.9375 15L19.875 10.9375Z" fill="#757575"/>
<path d="M24.75 26.375H5.25C4.81918 26.3745 4.40614 26.2031 4.1015 25.8985C3.79686 25.5939 3.62549 25.1808 3.625 24.75V5.25C3.62549 4.81918 3.79686 4.40614 4.1015 4.1015C4.40614 3.79686 4.81918 3.62549 5.25 3.625H24.75C25.1808 3.62545 25.5939 3.7968 25.8986 4.10145C26.2032 4.4061 26.3745 4.81916 26.375 5.25V24.75C26.3745 25.1808 26.2032 25.5939 25.8986 25.8986C25.5939 26.2032 25.1808 26.3745 24.75 26.375ZM5.25 5.25V15V24.75H24.75V15V5.25H5.25Z" fill="#757575"/>
<path d="M19.875 10.9375L18.7294 12.0831L20.8256 14.1875H9.17438L11.2706 12.0831L10.125 10.9375L6.0625 15L10.125 19.0625L11.2706 17.9169L9.17438 15.8125H20.8256L18.7294 17.9169L19.875 19.0625L23.9375 15L19.875 10.9375Z" fill="#757575"/>
</svg>
