<svg width="88" height="22" viewBox="0 0 88 22" fill="none" xmlns="http://www.w3.org/2000/svg">
<path d="M41.5289 0H24.1418V2.05003H41.5289V0Z" fill="#9E9E9E"/>
<path d="M41.5289 10.4286H35.4162L38.0688 3.87549H35.6501L32.9975 10.4286H29.0409L31.6934 3.87549H29.2747L26.6221 10.4286H24.1418V12.4786H41.5289V10.4286Z" fill="#9E9E9E"/>
<path d="M63.275 10.9439V8.89385H47.938V6.49695H61.225H63.275V4.44693V2.05003V0H61.225H45.8879V2.05003H61.225V4.44693H47.938H45.8879V6.49695V8.89385V10.9439H47.938H63.275Z" fill="#9E9E9E"/>
<path d="M44.3599 15.9365H54.0121V20.8565H56.1752V15.9365H65.6716V13.8872H44.3599V15.9365Z" fill="#9E9E9E"/>
<path d="M18.9149 10.9439V8.89385H3.57786V6.49695H16.8648H18.9149V4.44693V2.05003V0H16.8648H1.52783V2.05003H16.8648V4.44693H3.57786H1.52783V6.49695V8.89385V10.9439H3.57786H18.9149Z" fill="#9E9E9E"/>
<path d="M0 15.9365H9.6515V20.8565H11.8153V15.9365H21.3109V13.8872H0V15.9365Z" fill="#9E9E9E"/>
<path d="M43.4909 15.9294H22.1799V17.9795H43.4909V15.9294Z" fill="#9E9E9E"/>
<path d="M87.7855 5.41504H84.5974V0H82.5474V12.4787H84.5974V7.57887H87.7855V5.41504Z" fill="#9E9E9E"/>
<path d="M81.2319 0H66.5652V2.05003H81.2319V0Z" fill="#9E9E9E"/>
<path d="M81.3285 10.4286H76.7288L79.3814 3.87549H76.9627L74.3101 10.4286H70.3527L73.0052 3.87549H70.5873L67.9347 10.4286H66.5652V12.4786H81.3285V10.4286Z" fill="#9E9E9E"/>
<path d="M80.4522 13.8872H73.2747C71.0376 13.8872 69.2175 15.7073 69.2175 17.9436C69.2175 20.1799 71.0376 22 73.2747 22H80.4522C82.6893 22 84.5086 20.1799 84.5086 17.9436C84.5086 15.7073 82.6885 13.8872 80.4522 13.8872ZM80.4522 19.8159H73.2747C72.2419 19.8159 71.4024 18.9756 71.4024 17.9436C71.4024 16.9116 72.2427 16.0713 73.2747 16.0713H80.4522C81.4842 16.0713 82.3245 16.9116 82.3245 17.9436C82.3245 18.9756 81.4842 19.8159 80.4522 19.8159Z" fill="#9E9E9E"/>
</svg>
