<svg width="30" height="32" viewBox="0 0 30 32" fill="none" xmlns="http://www.w3.org/2000/svg">
<path d="M0.892559 3.46795C0.3672 3.60319 0 4.07689 0 4.61938V10.764C0 11.6284 0.700725 12.3291 1.56511 12.3291H10.4033C10.7317 12.3291 10.9978 12.5953 10.9978 12.9236C10.9978 13.2519 10.7317 13.5181 10.4033 13.5181H1.56511C0.700724 13.5181 0 14.2188 0 15.0832V30.811C0 31.4677 0.532319 32 1.18897 32H28.7438C29.4005 32 29.9328 31.4677 29.9328 30.811V23.406C29.9328 22.5416 29.2321 21.8409 28.3677 21.8409H12.1869C11.8586 21.8409 11.5924 21.5747 11.5924 21.2464C11.5924 20.9181 11.8586 20.6519 12.1869 20.6519H28.3677C29.2321 20.6519 29.9328 19.9512 29.9328 19.0868V4.61866C29.9328 4.07615 29.5656 3.60244 29.0402 3.46722L27.058 2.95705V14.7781C27.058 15.1885 26.7253 15.5212 26.3149 15.5212C25.9045 15.5212 25.5718 15.1885 25.5718 14.7781V13.5151L19.2231 11.9578V13.5273C19.2231 13.9377 18.8904 14.2704 18.48 14.2704C18.0696 14.2704 17.7369 13.9377 17.7369 13.5273L17.7369 0.756601C17.7369 0.690166 17.7456 0.625768 17.762 0.564488L16.1519 0.150102C15.3742 -0.0500532 14.5585 -0.0500336 13.7809 0.150158L0.892559 3.46795Z" fill="white"/>
<path d="M19.2231 0.940548L19.2231 3.29378L25.5718 4.851V2.57454L19.2231 0.940548Z" fill="white"/>
<path d="M25.5718 11.9848L19.2231 10.4276V8.39098L25.5718 9.9482V11.9848Z" fill="white"/>
<path d="M25.5718 8.41794V6.38127L19.2231 4.82405V6.86072L25.5718 8.41794Z" fill="white"/>
</svg>
